<svg xmlns="http://www.w3.org/2000/svg" viewBox="0 0 200 200" width="200" height="200">
  <defs>
    <linearGradient id="logoGradient" x1="0%" y1="0%" x2="100%" y2="100%">
      <stop offset="0%" style="stop-color:#c9b59c;stop-opacity:1" />
      <stop offset="50%" style="stop-color:#b8a082;stop-opacity:1" />
      <stop offset="100%" style="stop-color:#a68b6b;stop-opacity:1" />
    </linearGradient>
    <linearGradient id="textGradient" x1="0%" y1="0%" x2="100%" y2="100%">
      <stop offset="0%" style="stop-color:#4a5568;stop-opacity:1" />
      <stop offset="100%" style="stop-color:#2d3748;stop-opacity:1" />
    </linearGradient>
    <filter id="shadow" x="-50%" y="-50%" width="200%" height="200%">
      <feDropShadow dx="2" dy="2" stdDeviation="3" flood-color="#000" flood-opacity="0.3"/>
    </filter>
  </defs>
  
  <!-- Background Circle -->
  <circle cx="100" cy="100" r="90" fill="url(#logoGradient)" stroke="#8b7355" stroke-width="3" filter="url(#shadow)"/>
  
  <!-- Inner Circle -->
  <circle cx="100" cy="100" r="75" fill="none" stroke="#ffffff" stroke-width="2" opacity="0.3"/>
  
  <!-- Newspaper/Magazine Icon -->
  <rect x="60" y="60" width="80" height="60" rx="4" fill="#ffffff" stroke="#d9cfc7" stroke-width="2"/>
  <rect x="65" y="65" width="70" height="50" rx="2" fill="#f7fafc"/>
  
  <!-- Header line -->
  <rect x="70" y="70" width="60" height="4" rx="2" fill="url(#logoGradient)"/>
  
  <!-- Text lines -->
  <rect x="70" y="80" width="45" height="2" rx="1" fill="#a0aec0"/>
  <rect x="70" y="85" width="55" height="2" rx="1" fill="#a0aec0"/>
  <rect x="70" y="90" width="40" height="2" rx="1" fill="#a0aec0"/>
  <rect x="70" y="95" width="50" height="2" rx="1" fill="#a0aec0"/>
  <rect x="70" y="100" width="35" height="2" rx="1" fill="#a0aec0"/>
  <rect x="70" y="105" width="45" height="2" rx="1" fill="#a0aec0"/>
  
  <!-- Decorative elements -->
  <circle cx="85" cy="140" r="3" fill="url(#logoGradient)"/>
  <circle cx="100" cy="140" r="3" fill="url(#logoGradient)"/>
  <circle cx="115" cy="140" r="3" fill="url(#logoGradient)"/>
  
  <!-- Text -->
  <text x="100" y="170" text-anchor="middle" font-family="Inter, Arial, sans-serif" font-size="16" font-weight="700" fill="url(#textGradient)">MADING</text>
  <text x="100" y="185" text-anchor="middle" font-family="Inter, Arial, sans-serif" font-size="12" font-weight="500" fill="url(#textGradient)">ARGA</text>
</svg>